<?xml version="1.0" encoding="utf-8"?>
<!-- Generator: Adobe Illustrator 19.0.0, SVG Export Plug-In . SVG Version: 6.00 Build 0)  -->
<svg version="1.1" id="Layer_1" xmlns="http://www.w3.org/2000/svg" xmlns:xlink="http://www.w3.org/1999/xlink" x="0px" y="0px"
	 viewBox="0 0 211.1 211.1" style="enable-background:new 0 0 211.1 211.1;" xml:space="preserve">
<g id="XMLID_398_">
	<path id="XMLID_426_" d="M105.5,211.1C47.3,211.1,0,163.7,0,105.5C0,47.3,47.3,0,105.5,0s105.5,47.3,105.5,105.5
		C211.1,163.7,163.7,211.1,105.5,211.1z M105.5,8C51.8,8,8,51.8,8,105.5c0,53.8,43.8,97.5,97.5,97.5s97.5-43.8,97.5-97.5
		C203.1,51.8,159.3,8,105.5,8z"/>
</g>
<g id="XMLID_407_">
	<path id="XMLID_425_" d="M81,160.8c-4.3,0-6.7-0.8-11.4-5.9c-4.2-4.6-21.5-23.3-21.7-23.5l-0.1-0.1l-8.3-9.5
		c-0.1-0.1-0.2-0.2-0.3-0.2c-0.3-0.2-0.7-0.4-1-0.6c-2.3-1.7-3.7-5.2-4.3-10.4c-1.3-11.5-2.8-14.5-3.3-15.3
		c-0.6-0.9-1.5-2.5-2.7-4.5c-1.1-2-3.3-5.8-4.5-7.4c-0.1-0.1-0.3-0.2-0.4-0.3c-1.8-0.8-5.1-3-12.5-9c-0.5-0.4-0.5-1-0.2-1.5l3.7-4.6
		c0.4-0.5,1-0.5,1.5-0.2c4,3.2,8.6,6.7,10.3,7.7c0.1,0.1,0.2,0.1,0.3,0.1c2.6,0.6,4.4,3.6,8.8,11.1c0.9,1.6,1.9,3.2,2.3,3.9
		c2.1,3,3.5,8.6,4.7,19c0.3,2.3,0.7,3.7,1,4.4l0.4-0.1L53.8,126c0.9,1,17.6,19,21.7,23.5c2.9,3.2,3.2,3.3,6,3.3c0.1,0,0.3,0,0.4-0.1
		c1.2-0.6,3.3-2.9,6.3-6.8c0.1-0.2,0.3-0.3,0.4-0.5c0.2-0.3,0.3-0.6,0.2-1c-0.2-0.7-0.5-1.6-0.7-2.1c-0.3-0.9-0.7-2-0.9-3.1
		c0-0.1,0-0.2-0.1-0.3c-0.8-1.8-3.5-6.5-5.7-10.3l-8.1-13.9c-0.6-1,0.7-2.1,1.6-1.4l12.5,10.2c2.3,1.8,3.3,2.9,3.9,3.6
		c0.1,0.1,0.1,0.1,0.2,0.2c2.1,1.6,11.2,7.5,12.6,8.4c0.8,0.5,2.9,2.1,9.8,7.7c1.3,1,2.4,1.9,3,2.4c1.5,1.2,6.5,3.4,11.7,5.1
		c1.2,0.4,1.8,0.2,3.8-0.6c1.1-0.4,2.3-1,3.8-1.3c2.2-0.5,2.6-1.3,3-2.5c0.1-0.2,0-0.8,0.1-1.2c0.3-1.4,0.2-3.7,2.2-5.2
		c0.9-0.6,2.4-1.3,4.6-0.7c0.6,0.2,0.8,0.2,1.3,0.2c0.9,0,1.7,0,2.9,0.4c0.3,0.1,0.6,0.1,0.9-0.1c0.9-0.5,2.2-1.5,3-2.1
		c0.7-0.6,1.4-1.1,2.1-1.6c0.3-0.2,1-0.7,0.1-3.7c-1.4-4.6-0.4-7.1,1-9.6c1-1.8,2.4-2.6,3.4-3.1c0.8-0.4,0.8-0.4,0.9-0.7
		c0-0.1,0.1-0.2,0.1-0.3c-0.3-0.4-0.7-0.9-1.1-1.6c-1.9-3.1-3.3-5.9-2.6-8.5c0.1-0.8,0-3.5,0-4.9c0-1.1-0.1-2.2-0.1-3
		c0-0.4-0.2-0.8-2.7-3.5l-1-1.1c-1.6-1.7-4-4.1-6.5-6.6c-3.1-3.1-6.4-6.3-8.5-8.8c-2.1-2.3-8.9-6.9-13.3-9.9
		c-3.8-2.6-5.4-3.6-6.3-4.5c0,0-0.1-0.1-0.1-0.1c-1.2-0.9-6.3-3.7-9.7-5.6c-6.9-3.8-8.9-4.9-9.8-5.8c-1.7-1.4-10.8-6.2-13-6.7
		c0,0-0.1,0-0.1,0c-2.9-0.4-14.5-4.5-23.9-8l-0.6-0.2l-0.5-0.4c-10.3-8.5-13.3-11.7-14.2-13.4c-0.4-0.6,0-1.4,0.7-1.6l6.3-2.4
		c-0.1-0.6-0.1,0-0.1,0c0.9,1.3,6.6,6.4,11.7,10.6c0.1,0.1,0.2,0.1,0.3,0.2c9.2,3.4,19.4,6.9,21.2,7.3c3.6,0.4,15.3,6.8,17.6,8.8
		c0.9,0.6,5.1,3,8.3,4.7c8.2,4.5,10.6,5.9,11.6,7c0.6,0.5,3.1,2.2,5.1,3.5c6.6,4.5,12.3,8.4,14.9,11.3c2,2.3,5.2,5.4,8.2,8.4
		c2.6,2.6,5,5,6.8,6.9l1,1.1c3.1,3.4,4.9,5.3,4.9,8.9c0,0.7,0,1.7,0.1,2.7c0.1,3.4,0.1,5.1,0,6.3c0,0.2,0,0.4,0.1,0.6
		c0.2,0.5,0.6,1.3,1.5,2.7c0.3,0.5,0.5,0.8,0.8,1.1c1.8,2.4,2,4.2,0.9,7.4c-1.1,3.2-3.3,4.5-4.5,5.1c-0.1,0.1-0.3,0.2-0.4,0.2
		c-0.7,1.2-0.7,1.5-0.2,3.2c2.1,7.1-0.6,10.8-3.2,12.6c-0.5,0.4-1.1,0.8-1.8,1.3c-3.1,2.4-6.9,5.3-10.8,3.7
		c-0.4-0.2-0.4-0.2-0.8-0.2c-0.1,0-0.3,0-0.4,0c-0.1,0.6-0.2,1.2-0.5,1.8c-1.1,2.7-3,6.1-8.6,7.4c-0.9,0.2-1.7,0.6-2.6,0.9
		c-2.3,1-5.2,2.2-9.4,0.8c-2.5-0.8-10.7-3.7-14.1-6.4c-0.7-0.5-1.8-1.4-3.1-2.5c-2.8-2.3-8.1-6.6-9-7.1c-0.2-0.1-0.8-0.5-1.6-1
		c-0.8-0.5-1.9,0.2-1.6,1.2c0.7,2.5,0.9,5-0.9,6.8c-0.1,0.1-0.6,0.8-1,1.3c-4,5.3-8,10-12.5,10.1C81.7,160.8,81.4,160.8,81,160.8z"
		/>
</g>
<g id="XMLID_409_">
	<path id="XMLID_424_" d="M139.1,143.3c-4.2-5-9.5-9.7-11.5-10.6c-0.2-0.1-0.2-0.1-0.3-0.1c-4.2-1.3-15.5-10.6-26.5-19.3l-1.1-0.9
		c-0.6-0.5-1-0.9-1.2-1.1c0.1,0.1-0.2-1.2-0.2-1.2l1.1-3.6c1.4-1.1,2.4-0.9,3.9-0.7l0,0c10.5,8.3,23.2,17.8,26,19
		c0.1,0,0.2,0,0.2,0.1c3.2,1.7,10.4,8.2,15.4,13c1.1,1.1,0.9,2.7-0.2,3.7l-2.1,1.9C141.7,144.4,139.9,144.3,139.1,143.3z"/>
</g>
<g id="XMLID_410_">
	<path id="XMLID_423_" d="M158.4,127.6c-0.9,1.5-3.5,1.3-5,0.6c-0.9-0.4-1.8-0.8-2.8-1.2c-4.5-2-7.3-3.3-8.8-4.6
		c-1-0.9-5.4-3.8-9.1-6.3c-2.9-2-4.1-3.2-5.4-4.2c-2.6-1.9-10.1-9.1-17-14.8c-1.4-1.2-4.5-3.9-3.3-5.3l0.9-1
		c1.2-1.4,3.4-0.7,4.8,0.4c6.1,5.1,15,11.7,17.1,13.2c1.3,0.9,5.8,4.9,8.7,6.8c5.5,3.7,7.7,5.2,9.2,6.1c1.3,0.8,5.2,2.5,7.4,3.5
		c1,0.5,1.2,0.7,2.1,1.1c1.8,0.8,2,2.1,1.1,3.8L158.4,127.6z"/>
</g>
<g id="XMLID_408_">
	<path id="XMLID_422_" d="M159.4,110.5c-0.2,1.1-1.2,1.8-2.3,1.6c-4.1-0.8-7.2-2.1-9.2-2.9c-0.6-0.2-1.1-0.5-1.4-0.5
		c-1.8-0.5-4-2.3-8.4-6.1c-0.7-0.6-1.3-1.1-1.7-1.5c-0.8-0.7-2-1.9-3.7-3.4c-2-1.9-3-5.1-4.1-6.1c-2-2-8.2-6.9-13.1-11.4
		c-0.7-0.6-0.8-1.7-0.3-2.5l0.2-0.3c0.6-1,2-1.2,2.9-0.4c4.1,3.5,9.2,6.4,10.6,7.3c0.1,0.1,0.2,0.1,0.3,0.2c1.7,1.5,4.1,2.7,9.1,7.5
		c1.3,1.3,2.7,2.6,3.2,3c0.5,0.4,1.1,1,1.9,1.6c1.3,1.1,4.2,3.7,5.4,4.4c0.1,0.1,0.2,0.1,0.4,0.2c0.5,0.2,1,0.4,1.7,0.6
		c1.8,0.7,4.3,1.7,7.6,2.4c1,0.2,1.7,1.2,1.5,2.2L159.4,110.5z"/>
</g>
</svg>
