<?xml version="1.0" encoding="utf-8"?>
<!-- Generator: Adobe Illustrator 19.0.0, SVG Export Plug-In . SVG Version: 6.00 Build 0)  -->
<svg version="1.1" id="Layer_1" xmlns="http://www.w3.org/2000/svg" xmlns:xlink="http://www.w3.org/1999/xlink" x="0px" y="0px"
	 viewBox="0 0 220.9 211.4" style="enable-background:new 0 0 220.9 211.4;" xml:space="preserve">
<g id="XMLID_392_">
	<path id="XMLID_404_" d="M110.4,211.4C49.5,211.4,0,164,0,105.7C0,47.4,49.5,0,110.4,0s110.4,47.4,110.4,105.7
		C220.9,164,171.3,211.4,110.4,211.4z M110.4,8.2C54.1,8.2,8.2,51.9,8.2,105.7c0,53.8,45.9,97.5,102.3,97.5s102.3-43.7,102.3-97.5
		C212.7,51.9,166.8,8.2,110.4,8.2z"/>
</g>
<g id="XMLID_393_">
	<path id="XMLID_403_" d="M119.6,172.2c-2.5,0-5-0.7-7.5-1.4c-2.3-0.6-4.7-1.3-6.9-1.4c-5.9-0.3-8.2-1.6-11.1-3.7
		c-0.5-0.4-1.1-0.8-1.8-1.2c-3-1.9-4.2-4.4-4.9-6c-0.8-0.5-1.4-1.1-1.7-1.5c-0.5-0.6-0.9-1-2.6-1.1c-6.8-0.5-9.3-4-10.6-5.9
		l-0.2-0.3c-0.8-1.2-1.3-2.7-1.7-4.3c-0.2-0.6-0.4-1.5-0.7-2.1c-2.9-1-6.7-3.7-7.6-5.9c-0.2-0.6-2.4-5.1-4.5-9.5l-3.7-2.4
		c-2-1-3.3-3.3-5.3-7c-0.3-0.6-0.6-1.1-0.9-1.6c-1.4-2.4-1.2-6.8,0.2-18c0.2-1.7,0.5-3.9,0.5-4.4c0-1.4,0.6-5.7,2.1-15.2
		c0.6-3.6,1.3-8.1,1.3-8.8c0,0.1,0,0.1,0,0.2c0-3.2,5.8-13.3,14.9-17.2c8.9-3.9,36.5-7.9,54.6-7.9c10.1,0,14-0.2,15.5-0.3l27.6-24.6
		l3.8,3.1l-26.2,27.8c-1.2,1.6-3.6,1.8-5.6,1.9c-3,0.2-8.1,0.3-15,0.3c-17.9,0-44.1,4-51.3,7.2c-5.7,2.5-9.4,8.6-10,10.3
		c-0.1,1-0.4,3.1-1.4,9.4c-0.7,4.8-2,12.7-2,14c0,0.9-0.2,2.4-0.5,5.3c-0.4,3.4-1.3,11.1-1,13.3c0.2,0.4,0.5,0.9,0.8,1.4
		c0.6,1.1,1.6,3,2.2,3.8l6,3.9l0.5,1c1.3,2.7,4.1,8.5,5,10.4c0.7,0.6,2.3,1.7,3,1.8c3.8,0.6,5,4.6,5.8,7.5c0.2,0.6,0.5,1.6,0.6,2
		l0.2,0.2c0.9,1.4,1.5,2.2,4.4,2.4c4.5,0.3,6.6,2.2,7.8,3.5c1.4,0.5,2.5,1.7,3.3,3.7c0.4,1.1,0.8,2,2,2.7c0.8,0.5,1.5,1,2.1,1.4
		c2,1.4,2.8,2,6.8,2.2c3.1,0.2,6,1,8.6,1.7c2.2,0.6,5.2,1.4,6.2,1c2.8-1.3,8.8-3,15.7-4.9c2.1-0.6,4-1.1,4.7-1.3
		c0.3-0.1,0.6-0.2,1.1-0.4c10.8-3.4,14.3-5.8,15.4-7.1c4.1-5.4,6.7-10.1,7-13c0.3-2.7,1.5-10,2.5-16.4c0.6-4,1.4-8.6,1.4-9.3l0-0.3
		c0.3-3.8,1.8-7,8.8-11.2c6.8-4.1,33.8-20.9,34.1-21l2.7,5.3c-1,0.7-25.5,18.4-32.5,22.7c-4.7,2.9-4.8,4-4.8,4.8l0,0.5
		c-0.1,0.9-0.6,4-1.5,9.9c-1,6-2.1,13.5-2.4,16c-0.5,4.5-3.4,10.2-8.7,17.1c-3.4,4.4-11.7,7.5-19.4,9.9c-0.4,0.1-0.7,0.2-1,0.3
		c-0.9,0.3-2.7,0.8-5.2,1.4c-4.5,1.2-12,3.2-14.3,4.3C122.5,171.9,121.1,172.2,119.6,172.2z"/>
</g>
<g id="XMLID_394_">
	<path id="XMLID_402_" d="M62,125l-4.2-1c-1-0.2-1.7-1.3-1.4-2.3l12.4-43.3c0.2-0.8,1-1.3,1.8-1.3h0.2c1.2,0,2.2,1.8,2,2.9
		l-8.6,43.5C64.1,124.6,63,125.2,62,125z"/>
</g>
<g id="XMLID_397_">
	<path id="XMLID_401_" d="M72.6,137.5l-3.3-3.5c-0.3-0.4-0.4-0.9-0.3-1.3l4.7-15.6l8.3-24.6c0.2-0.6,0.7-0.9,1.3-0.9h0
		c0.8,0,1.5,0.8,1.3,1.6l-4,22.2c0,0,0,0.1,0,0.1l-5.7,21.4C74.6,137.9,73.3,138.3,72.6,137.5z"/>
</g>
<g id="XMLID_396_">
	<path id="XMLID_400_" d="M91.8,153.4l-4.8-0.6c-0.9-0.1-1.5-0.9-1.4-1.8l0.3-2.1l-0.4,0l3.6-16.8l4.8-21.7c0.2-0.7,0.8-1.3,1.6-1.3
		l0,0c1,0,1.7,0.8,1.6,1.8l-3.3,41.1C93.5,152.9,92.7,153.5,91.8,153.4z"/>
</g>
<g id="XMLID_395_">
	<path id="XMLID_399_" d="M108.5,167.8l-2-4.6c-0.4-0.8-0.6-1.9,0.4-1.8l20-8.9c0.2-0.1,0.4-0.3,0.6-0.4l6.5-7.9
		c0.2-0.2,0.3-0.5,0.4-0.8l1.6-16.2c0-0.2,0.1-0.1-0.2-0.4l-3.6-6.3l-0.8,1.6c-3.5,6.7-9.2,17.7-9.8,19.1c-0.9,2.3-3.3,3.3-5.1,3.8
		l-0.3,0.1l-1.8,0.2c-0.9,0.1-1.7-0.6-1.7-1.5l-0.4-5c-0.1-0.9,0.6-1.7,1.5-1.7l0,0c1.3-0.9,1-0.4,1.3-0.9c1-1.9,2.6-4.7,6.2-11.6
		c0.9-1.7,0.7-4.3-0.3-5.8l-2.1-3.1c-0.7-1.1,0.1-2.5,1.4-2.5l14.1,0.2c0.5,0,0.9,0.2,1.2,0.6l8.7,11.1c0.3,0.3,0.4,0.7,0.3,1.2
		l-2.2,20.6c0,0.3-0.2,0.6-0.4,0.8l-9.3,11.3c-0.2,0.2-0.4,0.3-0.6,0.4l-21.4,9.4C109.8,168.9,108.8,168.6,108.5,167.8z"/>
</g>
</svg>
