<?xml version="1.0" encoding="utf-8"?>
<!-- Generator: Adobe Illustrator 19.0.0, SVG Export Plug-In . SVG Version: 6.00 Build 0)  -->
<svg version="1.1" id="Layer_1" xmlns="http://www.w3.org/2000/svg" xmlns:xlink="http://www.w3.org/1999/xlink" x="0px" y="0px"
	 viewBox="0 0 211.1 211.1" style="enable-background:new 0 0 211.1 211.1;" xml:space="preserve">
<g id="XMLID_421_">
	<g id="XMLID_429_">
		<path id="XMLID_448_" d="M105.5,211.1C47.3,211.1,0,163.7,0,105.5C0,47.3,47.3,0,105.5,0s105.5,47.3,105.5,105.5
			C211.1,163.7,163.7,211.1,105.5,211.1z M105.5,8C51.8,8,8,51.8,8,105.5c0,53.8,43.8,97.5,97.5,97.5s97.5-43.8,97.5-97.5
			C203.1,51.8,159.3,8,105.5,8z"/>
	</g>
</g>
<g id="XMLID_441_">
	<path id="XMLID_410_" d="M107.5,178.5c-7.4,0-10.7-5.5-12.8-9.1c-0.3-0.5-0.6-1-0.9-1.5c-1.4-2.2-1.9-4.3-2.4-5.9
		c-0.7-2.5-0.9-3.4-3.4-4.6c-4.2-1.9-10-5.3-10.1-16.8c0-0.1,0-0.1,0-0.2c-0.1-1.5-0.5-1.2-11.7-0.9c-0.1,0-0.5,0.1-0.7,0.1
		c-0.3,0-0.6,0.1-0.9,0.1l-1.2,0.2c-13,1.7-27.5,3.4-35.4,0.9c-5.3-1.7-6.9-5.3-7.4-7.3c-1.4-6.1,3.2-13.3,8.1-17.9
		c5.6-5.4,24-5.8,47.4-5.9c5.5,0,10.2,0,13.1-0.2c2.1-0.1,3.5-0.3,4.3-0.5c0.4-0.4,0.8-0.9,1.3-1.3c0-0.2,0.1-0.3,0.1-0.5
		c0.1-0.5-0.1-1.1-0.6-1.4c-5.9-3.8-24.2-11-34.6-15.1c-8.3-3.3-15.5-6.1-18.9-7.9c-4.7-2.4-7.2-5.2-7.6-8.7
		c-0.8-5.8,4.5-10.5,10-15.6c6.6-6,23,0.5,47.3,10.9c7.7,3.3,14.9,6.5,18.2,7.1c4.5,0.9,7.9-3.1,13.7-10.2c3.2-4,6.8-8.5,11.4-12.5
		c10.5-9,19.3,0.6,27.1,9.1c4.5,5,9.7,10.6,15.8,14c8.8,4.9,17,5.1,23.7,0.5c0.2-0.1,0.5-0.3,0.8-0.5c0.9-0.5,1.9,0.2,1.9,1.2l0,4.7
		c0,1,1.2,1.7,2,1.1l0,0l-0.2,0.1c-9.3,6.4-20.7,6.4-32.2-0.1c-7.2-4-12.8-10.1-17.7-15.5c-8.9-9.7-11.9-11.9-16-8.4
		c-4,3.5-7.3,7.5-10.4,11.4c-6.2,7.7-12,14.9-21.5,13c-4-0.8-11-3.8-19.7-7.6c-8-3.5-17.1-7.4-24.8-9.9c-9.1-3-11.6-3.1-13.4-2.6
		c-0.2,0-0.4,0.2-0.5,0.3c-2.3,2.1-7.8,6.9-7.4,8.4c0.1,0.5,0.7,1.3,3.3,2.6c3.1,1.6,10.4,4.5,18.2,7.6
		c28.7,11.4,38.6,15.9,40.4,20.4c0.5,1.3,0.5,2.6,0,3.8c-0.3,0.7-0.4,1.3-0.5,2.1c-0.8,6.2-4.8,7.5-12.9,8
		c-3.1,0.2-7.9,0.2-13.6,0.2c-11.4,0-38.2,0.1-41.9,3.7c-4.2,4-6.3,8.4-5.8,10.3c0.1,0.2,0.2,0.9,2,1.5c6.9,2.2,23.8-0.1,31.9-1.2
		l1.2-0.2c0.2,0,0.4-0.1,0.6-0.1c0.8-0.1,8.7-0.5,9.4-0.5c11.9,0,11.8,0.7,12.4,8.7c0.4,5.3,2.2,8.6,5.4,10.2c5.9,2.7,7,6.8,7.8,9.8
		c0.4,1.4,0.7,2.6,1.4,3.7c0.4,0.6,0.7,1.1,1.1,1.7c2.6,4.3,3.7,6.3,9.4,4.6c5.4-1.7,10.3-2.5,14.7-3.2c3.6-0.6,6.6-1.1,8.9-1.9
		l0.5-0.2c5.5-2,9.9-3.6,20.1-2.5c2.9,0.3,5.4-0.3,6.7-0.7c1.6-0.5,3.2-2,3.7-2.8c1.4-2.4,0.4-0.9,1.5-2.2
		c2.5-3,12.5-13.7,12.9-14.7c2.2-4.6,5.5-4.1,11.1-3.4c4.9,0.7,6.8,0.7,7.6,0.7c1.5,0,2.3,0.2,3.3,0.7c0.7,0.4,0.9,1.3,0.5,1.9
		l-3.6,5.3c0.1,0,0.2,0,0.3,0c-0.1,0-0.2,0-0.3,0l-0.1,0.1c-0.1,0-0.1-0.1-0.2-0.1c-1.2,0-3.5,0-8.7-0.7c-0.9-0.1-1.6-0.2-2.2-0.3
		c-0.5-0.1-3.6,0.6-7.2,3.1c-4.6,3.3-5.3,8.2-6,10.1c-0.6,1.7-2.2,2.5-4.9,5.7c-3.8,4.5-12.5,5.4-15.3,5.2
		c-8.3-0.9-11.4,0.2-16.5,2.1l-0.5,0.2c-2.9,1.1-6.3,1.6-10.3,2.3c-4.1,0.7-8.7,1.5-13.7,3C111.1,178.2,109.2,178.5,107.5,178.5z"/>
</g>
<g id="XMLID_442_">
	<path id="XMLID_409_" d="M161.4,126.4c-1.4-0.2-6.3-0.9-8.7-2.1c-2.2-1.1-9.5-6.8-10.8-9.6c-1.3-2.7-1.4-7.3-1.4-9.1
		c0-1.3,0.2-3.2,0.4-5.7c0.3-2.9,0.7-6.9,0.6-8.6c-0.1-0.8-0.4-1.5-1-1.9c-0.5-0.4-1.3-0.6-2.1-0.4c-0.2,0-0.3,0.1-0.5,0.1
		c-0.1,0.5-0.2,1-0.4,1.6c-0.1,0.4-0.3,1.6-0.4,2.7c-0.4,3.4-1,8.5-3.5,12.8c-0.8,1.4-1.3,3-1.8,4.7c-1,3.4-2.2,7.6-6.9,10.8
		c-2.7,1.8-4.9,1.6-6.3,1c-3.8-1.5-4.7-6-6.1-12.2c-0.7-3.2-1.5-6.8-2.7-10.3c-4.1-12.1-3.3-17.8-3.2-18.8l7.9,1.5l-3.9-0.8l3.9,0.7
		c0,0-0.6,4.6,2.9,14.8c1.4,4,2.2,8,2.9,11.2c0.4,1.7,0.8,3.8,1.3,5.2c1.2-1.3,1.7-2.9,2.5-5.4c0.6-2,1.3-4.3,2.6-6.6
		c1.6-2.7,2.1-6.7,2.4-9.6c0.2-1.6,0.3-2.9,0.7-4c0.1-0.3,0.1-0.6,0.2-0.9c0.5-3.8,2.4-5.6,7-6.4c3.1-0.5,6.1,0.2,8.4,2
		c2.3,1.8,3.8,4.6,4,7.6c0.2,2.4-0.2,6.5-0.6,10c-0.2,2-0.4,4-0.4,4.9c0,2.6,0.3,4.8,0.6,5.5c1.1,1.3,5.8,5.4,7.2,6
		c0.8,0.4,4,1.1,6.3,1.4L161.4,126.4z"/>
</g>
<g id="XMLID_443_">
	<path id="XMLID_408_" d="M92.7,158.9l-1.1-7.9l8.3-1.2c1.9-0.5,14.9-4,17.5-4.7c1.9-0.5,8.3-4.3,11.9-7.4c2.6-2.2,2.8-2.5,2.9-5.8
		c-2.2-0.4-7.8-0.2-22.5,2.8c-2.9,0.6-3.6,0.7-4.2,0.7c-0.7,0-5.7,0.7-9.6,1.3c-14.5,2.1-15.4,2.1-16.5,1.9l-15.7-6.8
		c-0.3-0.1,16.7-1.1,16.7-1.1c1.3,0,9.2-1.1,14.4-1.9c7.2-1,9.5-1.3,10.5-1.4c0.4-0.1,1.7-0.3,2.9-0.6c18.4-3.8,26.2-4.1,29.9-1
		c1.4,1.2,2.2,2.8,2.2,4.6c-0.1,7.6-1.1,9.2-5.7,13.2c-3.8,3.3-11.4,8.1-15.1,9.1c-2.8,0.8-17.8,4.8-17.8,4.8l-0.5,0.1L92.7,158.9z"
		/>
</g>
<g id="XMLID_445_">
	<path id="XMLID_407_" d="M129.7,170.2l-11.8,1c-1.7,0.1-2.3-2.1-0.9-2.9c4.5-2.5,9.9-5.5,9.8-5.4c1.6-0.9,11-8,12.7-9.9
		c0.1-0.1,0.1-0.1,0.1-0.2c0.3-0.4,0.6-0.9,0.9-1.4c1.7-2.5,3.3-5,2.4-6.7c-1-1.8-2.4-2.6-3.2-2.9c-0.5-0.2-0.9-0.6-1-1.1l-1.3-5
		c-0.3-1,0.5-2,1.6-1.9c3.3,0.2,8.3,2.1,11,7.2c3.2,6.1-0.9,12.1-2.8,14.9c-0.3,0.4-0.6,0.8-0.7,1.1c-1.8,3.2-13.6,11.8-16.2,13.1
		C130.1,170.1,129.9,170.2,129.7,170.2z"/>
</g>
</svg>
